<svg width="217" height="203" viewBox="0 0 217 203" fill="none" xmlns="http://www.w3.org/2000/svg">
<path d="M183 38.5L147 81.5H101.5L131.5 38.5H80L59 76.5H98.5L0 203L34 107H2.5L49.5 0H216.5L183 38.5ZM113.977 111C121.785 111 127.884 113.404 132.272 118.212C136.726 123.02 138.952 129.782 138.952 138.5V153.5C138.952 162.474 136.726 169.301 132.272 173.98C127.884 178.66 121.785 181 113.977 181C106.167 181 100.036 178.66 95.583 173.98C91.1945 169.301 89 162.474 89 153.5V138.5C89 129.782 91.1945 123.02 95.583 118.212C100.036 113.404 106.167 111 113.977 111ZM167.056 111C171.057 111 174.606 111.577 177.704 112.73C180.802 113.82 183.384 115.327 185.449 117.25C187.579 119.173 189.16 121.385 190.192 123.885C191.29 126.385 191.838 129.013 191.838 131.77V135.23H179.06V132.923C179.06 130.231 177.995 127.891 175.865 125.904C173.8 123.917 170.863 122.923 167.056 122.923C163.829 122.923 161.28 123.596 159.408 124.942C157.537 126.224 156.601 127.987 156.601 130.23C156.601 131.384 156.827 132.443 157.278 133.404C157.73 134.302 158.505 135.135 159.602 135.904C160.763 136.609 162.248 137.25 164.055 137.827C165.926 138.404 168.282 138.949 171.122 139.462C178.221 140.744 183.642 142.892 187.385 145.904C191.128 148.917 193 153.372 193 159.27V160.423C193 163.564 192.419 166.416 191.258 168.98C190.161 171.48 188.547 173.628 186.417 175.423C184.287 177.218 181.706 178.596 178.673 179.558C175.64 180.519 172.219 181 168.411 181C163.958 181 160.021 180.391 156.601 179.173C153.245 177.891 150.438 176.16 148.179 173.98C145.92 171.737 144.21 169.141 143.048 166.192C141.886 163.18 141.305 159.91 141.305 156.385V153.5H154.084V155.808C154.084 159.846 155.245 163.084 157.568 165.52C159.956 167.891 163.635 169.077 168.604 169.077C172.477 169.077 175.349 168.244 177.221 166.577C179.092 164.91 180.028 162.923 180.028 160.615C180.028 159.526 179.834 158.5 179.447 157.538C179.06 156.513 178.382 155.615 177.414 154.846C176.446 154.013 175.123 153.276 173.445 152.635C171.767 151.994 169.637 151.449 167.056 151C163.635 150.423 160.505 149.686 157.665 148.788C154.826 147.827 152.341 146.576 150.211 145.038C148.146 143.5 146.533 141.577 145.371 139.27C144.209 136.962 143.629 134.141 143.629 130.808V130.23C143.629 127.474 144.177 124.942 145.274 122.635C146.436 120.263 148.017 118.211 150.018 116.48C152.083 114.75 154.535 113.404 157.375 112.442C160.279 111.481 163.506 111 167.056 111ZM113.977 122.538C111.782 122.538 109.91 122.955 108.361 123.788C106.812 124.557 105.554 125.616 104.586 126.962C103.618 128.308 102.908 129.911 102.456 131.77C102.004 133.628 101.778 135.615 101.778 137.73V154.27C101.778 156.513 101.972 158.564 102.359 160.423C102.747 162.282 103.425 163.884 104.393 165.23C105.361 166.577 106.619 167.635 108.168 168.404C109.717 169.109 111.653 169.462 113.977 169.462C116.299 169.462 118.235 169.109 119.784 168.404C121.333 167.635 122.592 166.577 123.56 165.23C124.528 163.884 125.206 162.282 125.593 160.423C125.98 158.564 126.174 156.513 126.174 154.27V137.73C126.174 135.615 125.948 133.628 125.496 131.77C125.044 129.911 124.334 128.308 123.366 126.962C122.398 125.616 121.14 124.557 119.591 123.788C118.042 122.955 116.171 122.538 113.977 122.538Z" fill="#0F0F0F"/>
</svg>
